<svg xmlns="http://www.w3.org/2000/svg" xmlns:xlink="http://www.w3.org/1999/xlink" width="48" zoomAndPan="magnify" viewBox="0 0 36 36.000001" height="48" preserveAspectRatio="xMidYMid meet" version="1.0"><defs><clipPath id="cf26d4858a"><path d="M 2.238281 1.75 L 33.617188 1.75 L 33.617188 33.128906 L 2.238281 33.128906 Z M 2.238281 1.75 " clip-rule="nonzero"/></clipPath></defs><path fill="#ffffff" d="M 17.964844 25.144531 C 16.445312 25.144531 14.960938 24.695312 13.699219 23.851562 C 12.4375 23.007812 11.453125 21.808594 10.871094 20.40625 C 10.289062 19 10.136719 17.457031 10.433594 15.96875 C 10.730469 14.476562 11.460938 13.109375 12.535156 12.035156 C 13.609375 10.960938 14.980469 10.230469 16.46875 9.933594 C 17.957031 9.636719 19.503906 9.789062 20.90625 10.371094 C 22.308594 10.953125 23.507812 11.9375 24.351562 13.203125 C 25.195312 14.464844 25.644531 15.949219 25.644531 17.46875 C 25.640625 19.503906 24.832031 21.457031 23.394531 22.894531 C 21.953125 24.335938 20 25.144531 17.964844 25.144531 Z M 17.964844 11.933594 C 16.871094 11.933594 15.800781 12.257812 14.890625 12.867188 C 13.980469 13.472656 13.269531 14.339844 12.851562 15.351562 C 12.433594 16.363281 12.324219 17.472656 12.535156 18.546875 C 12.75 19.621094 13.277344 20.609375 14.050781 21.382812 C 14.824219 22.15625 15.8125 22.683594 16.886719 22.898438 C 17.960938 23.109375 19.074219 23 20.082031 22.582031 C 21.09375 22.164062 21.960938 21.453125 22.566406 20.542969 C 23.175781 19.632812 23.5 18.5625 23.5 17.46875 C 23.5 16 22.917969 14.59375 21.878906 13.554688 C 20.839844 12.515625 19.433594 11.933594 17.964844 11.933594 Z M 17.964844 11.933594 " fill-opacity="1" fill-rule="nonzero"/><g clip-path="url(#cf26d4858a)"><path fill="#4caf50" d="M 17.964844 33.195312 C 14.171875 33.195312 10.507812 31.824219 7.644531 29.335938 C 4.78125 26.847656 2.914062 23.40625 2.390625 19.652344 C 1.863281 15.894531 2.714844 12.074219 4.785156 8.894531 C 6.851562 5.714844 10.003906 3.394531 13.652344 2.351562 C 17.296875 1.3125 21.199219 1.628906 24.632812 3.238281 C 28.066406 4.847656 30.804688 7.648438 32.339844 11.117188 C 33.871094 14.585938 34.097656 18.492188 32.980469 22.117188 C 31.859375 25.742188 29.464844 28.835938 26.242188 30.835938 C 26.085938 30.933594 25.914062 30.996094 25.730469 31.027344 C 25.550781 31.054688 25.367188 31.050781 25.1875 31.007812 C 25.011719 30.964844 24.839844 30.890625 24.691406 30.78125 C 24.542969 30.675781 24.417969 30.539062 24.320312 30.386719 C 24.226562 30.230469 24.160156 30.054688 24.132812 29.875 C 24.101562 29.695312 24.109375 29.511719 24.148438 29.332031 C 24.191406 29.15625 24.269531 28.984375 24.375 28.835938 C 24.480469 28.6875 24.617188 28.5625 24.773438 28.464844 C 27.378906 26.855469 29.328125 24.375 30.273438 21.460938 C 31.21875 18.546875 31.101562 15.394531 29.945312 12.558594 C 28.785156 9.726562 26.65625 7.394531 23.941406 5.980469 C 21.222656 4.566406 18.09375 4.164062 15.105469 4.839844 C 12.121094 5.515625 9.46875 7.230469 7.628906 9.679688 C 5.785156 12.125 4.871094 15.144531 5.046875 18.203125 C 5.222656 21.261719 6.476562 24.15625 8.589844 26.375 C 10.699219 28.597656 13.527344 29.996094 16.570312 30.324219 L 16.570312 17.890625 C 16.570312 17.519531 16.71875 17.167969 16.980469 16.90625 C 17.242188 16.644531 17.597656 16.496094 17.964844 16.496094 C 18.335938 16.496094 18.691406 16.644531 18.949219 16.90625 C 19.210938 17.167969 19.359375 17.519531 19.359375 17.890625 L 19.359375 31.800781 C 19.359375 32.171875 19.210938 32.527344 18.949219 32.785156 C 18.6875 33.046875 18.335938 33.195312 17.964844 33.195312 Z M 17.964844 33.195312 " fill-opacity="1" fill-rule="nonzero"/></g></svg>